HIERARCHY
ROOT Hips
{
	OFFSET -0.001795 -0.223333 0.028219
	CHANNELS 6 Xposition Yposition Zposition Zrotation Yrotation Xrotation 
	JOINT LeftUpLeg
	{
		OFFSET 0.069520 -0.091406 -0.006815
		CHANNELS 3 Zrotation Yrotation Xrotation
		JOINT LeftLeg
		{
			OFFSET 0.034277 -0.375199 -0.004496
			CHANNELS 3 Zrotation Yrotation Xrotation
			JOINT LeftFoot
			{
				OFFSET -0.013596 -0.397961 -0.043693
				CHANNELS 3 Zrotation Yrotation Xrotation
				JOINT LeftToe
				{
					OFFSET 0.026358 -0.055791 0.119288
					CHANNELS 3 Zrotation Yrotation Xrotation
					End Site
					{
						OFFSET 0.000000 0.000000 0.000000
					}
				}
			}
		}
	}
	JOINT RightUpLeg
	{
		OFFSET -0.067670 -0.090522 -0.004320
		CHANNELS 3 Zrotation Yrotation Xrotation
		JOINT RightLeg
		{
			OFFSET -0.038290 -0.382569 -0.008850
			CHANNELS 3 Zrotation Yrotation Xrotation
			JOINT RightFoot
			{
				OFFSET 0.015774 -0.398415 -0.042312
				CHANNELS 3 Zrotation Yrotation Xrotation
				JOINT RightToe
				{
					OFFSET -0.025372 -0.048144 0.123348
					CHANNELS 3 Zrotation Yrotation Xrotation
					End Site
					{
						OFFSET 0.000000 0.000000 0.000000
					}
				}
			}
		}
	}
	JOINT Spine
	{
		OFFSET -0.002533 0.108963 -0.026696
		CHANNELS 3 Zrotation Yrotation Xrotation
		JOINT Spine1
		{
			OFFSET 0.005487 0.135180 0.001092
			CHANNELS 3 Zrotation Yrotation Xrotation
			JOINT Spine2
			{
				OFFSET 0.001457 0.052922 0.025425
				CHANNELS 3 Zrotation Yrotation Xrotation
				JOINT Neck
				{
					OFFSET -0.002778 0.213870 -0.042857
					CHANNELS 3 Zrotation Yrotation Xrotation
					JOINT Head
					{
						OFFSET 0.005152 0.064970 0.051349
						CHANNELS 3 Zrotation Yrotation Xrotation
						End Site
						{
							OFFSET 0.000000 0.000000 0.000000
						}
					}
				}
				JOINT LeftShoulder
				{
					OFFSET 0.078845 0.121749 -0.034090
					CHANNELS 3 Zrotation Yrotation Xrotation
					JOINT LeftArm
					{
						OFFSET 0.090977 0.030469 -0.008868
						CHANNELS 3 Zrotation Yrotation Xrotation
						JOINT LeftForeArm
						{
							OFFSET 0.259612 -0.012772 -0.027456
							CHANNELS 3 Zrotation Yrotation Xrotation
							JOINT LeftHand
							{
								OFFSET 0.249234 0.008986 -0.001171
								CHANNELS 3 Zrotation Yrotation Xrotation
								End Site
								{
									OFFSET 0.000000 0.000000 0.000000
								}
							}
						}
					}
				}
				JOINT RightShoulder
				{
					OFFSET -0.081759 0.118833 -0.038615
					CHANNELS 3 Zrotation Yrotation Xrotation
					JOINT RightArm
					{
						OFFSET -0.096012 0.032551 -0.009143
						CHANNELS 3 Zrotation Yrotation Xrotation
						JOINT RightForeArm
						{
							OFFSET -0.253742 -0.013329 -0.021401
							CHANNELS 3 Zrotation Yrotation Xrotation
							JOINT RightHand
							{
								OFFSET -0.255298 0.007772 -0.005559
								CHANNELS 3 Zrotation Yrotation Xrotation
								End Site
								{
									OFFSET 0.000000 0.000000 0.000000
								}
							}
						}
					}
				}
			}
		}
	}
}
MOTION
Frames: 9
Frame Time: 0.050000
0.000000 0.941305 0.000000 -0.423726 -0.243064 2.927416 0.633979 -0.002339 0.115197 0.379240 -0.027810 -0.361868 -2.567081 -3.080597 4.465577 0.000000 0.000000 0.000000 -0.290705 0.190346 -1.860070 -1.253961 0.188912 1.140629 3.877110 6.604118 4.847210 0.000000 0.000000 0.000000 2.222808 -0.066504 0.421352 -1.376223 0.663947 -0.818332 -1.822529 1.664127 3.388311 4.156486 -1.658539 -11.991808 0.000000 0.000000 0.000000 -25.156138 1.621833 -4.169410 -43.561870 -2.572288 -3.946947 -14.061176 -20.378199 3.185252 0.000000 0.000000 0.000000 25.345352 -4.803574 -4.821166 50.153373 3.513632 -3.454539 11.916668 21.814108 2.878236 0.000000 0.000000 0.000000 
0.000316 0.940323 0.000570 -0.421234 -0.513243 3.462431 0.898991 -0.002655 0.186861 -0.195153 0.066415 -1.401003 -2.484080 -2.942281 4.454432 0.000000 0.000000 0.000000 -0.808083 0.263426 -2.551694 -0.420984 0.102319 1.346578 3.927893 6.851513 4.627287 0.000000 0.000000 0.000000 2.479738 -0.023234 -0.437672 -1.708205 0.812546 -0.224983 -1.988368 1.240417 2.897426 3.569998 -1.228700 -12.696018 0.000000 0.000000 0.000000 -25.319738 2.659825 -4.663246 -43.449414 -2.125407 -4.091003 -14.237388 -20.543649 3.262197 0.000000 0.000000 0.000000 24.520025 -5.349689 -5.221147 51.176277 2.363945 -3.876895 12.994595 22.756727 3.188611 0.000000 0.000000 0.000000 
0.000490 0.939613 0.000948 -0.183494 -0.379059 3.555682 0.605928 -0.031392 -0.218004 -0.134646 0.042327 -0.843817 -2.459764 -3.033488 4.165353 0.000000 0.000000 0.000000 -0.720837 0.293587 -2.882756 -1.034959 0.198213 1.852677 3.687846 6.664346 4.066390 0.000000 0.000000 0.000000 2.495882 -0.022885 -0.458443 -1.598910 0.774358 -1.737602 -2.186473 0.486856 4.101080 2.990733 -1.093293 -11.232317 0.000000 0.000000 0.000000 -24.775045 2.297882 -4.100663 -44.190305 -2.209246 -4.301859 -13.560830 -19.493779 3.010510 0.000000 0.000000 0.000000 25.261294 -4.419144 -4.943918 50.534494 2.153838 -3.982591 11.204300 22.804360 2.840920 0.000000 0.000000 0.000000 
0.000416 0.939011 0.001456 -0.126458 -0.268657 3.655453 0.583559 -0.017489 -0.058945 -0.172064 0.060108 -1.275790 -2.503953 -3.154955 4.086568 0.000000 0.000000 0.000000 -1.052168 0.315356 -3.090683 -0.521150 0.148438 2.122918 3.590724 6.598415 3.830759 0.000000 0.000000 0.000000 2.314680 -0.024723 -0.395515 -1.669009 0.803597 -1.393476 -1.735162 -0.381815 3.413434 2.662218 -0.945670 -11.156099 0.000000 0.000000 0.000000 -25.212092 3.874364 -4.855604 -44.171770 -2.172784 -4.329190 -14.179745 -18.823162 3.034427 0.000000 0.000000 0.000000 24.729389 -4.846571 -5.428611 50.408834 1.939605 -3.913332 12.267736 22.060785 2.871539 0.000000 0.000000 0.000000 
0.000244 0.939177 0.001937 -0.146645 -0.433775 3.469239 0.410192 -0.001268 0.082307 0.157404 0.020782 -1.074196 -2.406620 -2.996201 4.036094 0.000000 0.000000 0.000000 -1.049045 0.295691 -2.879834 -0.498943 0.146099 2.130582 3.677485 6.762137 3.877680 0.000000 0.000000 0.000000 2.402661 -0.027822 -0.342387 -1.511780 0.729465 -1.207410 -1.902246 -0.428682 3.359422 2.413663 -0.839048 -10.638738 0.000000 0.000000 0.000000 -25.244581 3.746014 -4.755721 -44.316061 -2.113184 -4.368809 -14.122797 -18.369909 2.951423 0.000000 0.000000 0.000000 24.135846 -4.737624 -5.292797 50.792860 1.737884 -4.016606 12.108747 22.032626 2.833183 0.000000 0.000000 0.000000 
0.000059 0.939533 0.002503 -0.030690 -0.246129 3.475890 0.430982 0.029426 0.438237 -0.033758 0.061025 -1.701566 -2.605708 -3.203573 4.379842 0.000000 0.000000 0.000000 -1.273596 0.277173 -2.653586 -0.269813 0.104438 1.812120 3.661978 6.629464 4.041214 0.000000 0.000000 0.000000 2.256185 -0.020940 -0.417050 -1.392400 0.675009 -1.219406 -1.859592 -0.801133 3.408137 2.144816 -0.694636 -10.517403 0.000000 0.000000 0.000000 -25.605635 4.309038 -5.061546 -44.352446 -2.063029 -4.418799 -14.095885 -18.436896 2.969770 0.000000 0.000000 0.000000 23.779233 -4.855314 -5.387109 50.636513 1.461109 -4.098585 12.562811 21.956921 2.887306 0.000000 0.000000 0.000000 
-0.000035 0.940059 0.002993 0.011567 -0.389261 3.366717 0.316261 0.045798 0.589083 0.067861 0.050716 -1.681029 -2.584668 -3.084013 4.549903 0.000000 0.000000 0.000000 -1.237809 0.258987 -2.456622 -0.436245 0.119216 1.692647 3.760659 6.746624 4.200844 0.000000 0.000000 0.000000 2.430878 -0.031634 -0.275359 -1.487600 0.718365 -1.181013 -2.068313 -0.705420 3.419398 2.366139 -0.827443 -10.616258 0.000000 0.000000 0.000000 -25.850482 4.514592 -5.246752 -44.434826 -1.679091 -4.556143 -14.065123 -18.678162 3.003370 0.000000 0.000000 0.000000 23.975077 -5.022786 -5.500121 50.489741 1.014717 -4.272372 12.634968 22.321747 2.957830 0.000000 0.000000 0.000000 
0.000023 0.940355 0.003444 0.068917 -0.354813 3.290041 0.302785 0.059826 0.742408 -0.016092 0.061403 -1.763374 -2.646076 -3.131066 4.689536 0.000000 0.000000 0.000000 -1.358479 0.247225 -2.311227 -0.334681 0.104850 1.639246 3.779366 6.730482 4.294995 0.000000 0.000000 0.000000 2.498010 -0.034088 -0.245560 -1.450022 0.698518 -0.926762 -2.161571 -0.600284 3.168377 2.604599 -0.969649 -10.626725 0.000000 0.000000 0.000000 -25.946446 4.601200 -5.373069 -44.551837 -1.200095 -4.700731 -14.196979 -19.176488 3.101656 0.000000 0.000000 0.000000 23.945013 -5.221444 -5.573773 50.364201 0.796842 -4.337488 12.895485 22.553102 3.044637 0.000000 0.000000 0.000000 
0.000130 0.940455 0.003778 0.121411 -0.241721 3.302689 0.259530 0.066200 0.801795 -0.026079 0.066353 -1.880027 -2.724422 -3.233269 4.775598 0.000000 0.000000 0.000000 -1.397646 0.245688 -2.289255 -0.358459 0.107664 1.638922 3.734292 6.629939 4.298814 0.000000 0.000000 0.000000 2.759097 -0.027781 -0.416886 -1.540053 0.737712 -0.651078 -2.349959 -0.540884 2.977899 2.732268 -1.055181 -10.466824 0.000000 0.000000 0.000000 -25.903346 4.878679 -5.594759 -44.773982 -0.758136 -4.847899 -14.450641 -19.474132 3.187651 0.000000 0.000000 0.000000 24.010865 -5.597974 -5.764250 50.030633 0.651713 -4.358484 13.488990 22.798498 3.198424 0.000000 0.000000 0.000000 
